<svg xmlns="https://www.w3.org/2000/svg" xmlns:xlink="https://www.w3.org/1999/xlink" width="1523.769" height="137.893" viewBox="0 0 1523.769 137.893"><defs><style>.a{fill:#00946e;}.b{clip-path:url(#a);}</style><clipPath id="a"><rect class="a" width="1523.769" height="137.893"/></clipPath></defs><g class="b"><path class="a" d="M7.684,137.893h0a7.684,7.684,0,0,0,7.684-7.684V26.793a7.684,7.684,0,0,1,7.684-7.684h38.67A7.684,7.684,0,0,1,66.167,33.06L36.046,54.427A12.6,12.6,0,0,0,43.335,77.3H61.722a7.684,7.684,0,0,1,4.446,13.951L36.712,112.147a14.18,14.18,0,0,0,8.2,25.745h87.8a7.684,7.684,0,0,0,7.684-7.684V7.684a7.684,7.684,0,0,0-15.368,0V111.1a7.684,7.684,0,0,1-7.684,7.684H77.56a7.684,7.684,0,0,1-4.469-13.935L104,82.751a13.542,13.542,0,0,0-7.876-24.558H80.912a7.684,7.684,0,0,1-4.469-13.935L104,24.558A13.542,13.542,0,0,0,96.122,0H7.684A7.684,7.684,0,0,0,0,7.684V130.209a7.684,7.684,0,0,0,7.684,7.684"/><path class="a" d="M1075.218,10.827a10.081,10.081,0,0,0-7.563,3.065,10.564,10.564,0,0,0-2.969,7.66V103.9L994.973,15.042a9.121,9.121,0,0,0-4.116-3.065,14.664,14.664,0,0,0-5.651-1.149,11.452,11.452,0,0,0-11.682,11.682V134.165a10.763,10.763,0,0,0,2.872,7.66,9.774,9.774,0,0,0,7.47,3.063,10.318,10.318,0,0,0,7.754-3.063,10.567,10.567,0,0,0,2.969-7.66V52.387l70.288,89.245a7.433,7.433,0,0,0,3.733,2.4,16.585,16.585,0,0,0,5.268.86,11.452,11.452,0,0,0,11.682-11.682V21.553a10.76,10.76,0,0,0-2.872-7.66,9.778,9.778,0,0,0-7.471-3.065" transform="translate(-801.273 -8.911)"/><path class="a" d="M1854.431,9.193a65.343,65.343,0,0,0-66.84,0,63.835,63.835,0,0,0-23.174,24.993,73.4,73.4,0,0,0-8.33,34.76,73.392,73.392,0,0,0,8.33,34.76,63.818,63.818,0,0,0,23.174,24.993,65.344,65.344,0,0,0,66.84,0,64.547,64.547,0,0,0,23.268-24.993,72.684,72.684,0,0,0,8.427-34.76,72.69,72.69,0,0,0-8.427-34.76,64.564,64.564,0,0,0-23.268-24.993m1.626,83.024a41.7,41.7,0,0,1-14.361,16.564,38.374,38.374,0,0,1-41.464.1,40.417,40.417,0,0,1-14.174-16.567,53.1,53.1,0,0,1-5.075-23.364,53.116,53.116,0,0,1,5.075-23.364,40.452,40.452,0,0,1,14.174-16.567,38.389,38.389,0,0,1,41.464.1,41.726,41.726,0,0,1,14.361,16.567,51.679,51.679,0,0,1,5.171,23.268,51.682,51.682,0,0,1-5.171,23.271" transform="translate(-1445.372 0)"/><path class="a" d="M3454.2,120.523l-42.709-56.5,41.75-39.837a10.425,10.425,0,0,0,3.448-7.468,11.745,11.745,0,0,0-3.065-7.66,9.425,9.425,0,0,0-7.468-3.639q-4.983,0-9.385,4.4L3375.48,70.153V18.06A11.159,11.159,0,0,0,3363.8,6.378a12.127,12.127,0,0,0-8.81,3.352,11.157,11.157,0,0,0-3.446,8.33v110.7a11.289,11.289,0,0,0,3.352,8.33,11.529,11.529,0,0,0,8.521,3.352,11.977,11.977,0,0,0,8.715-3.255,11.232,11.232,0,0,0,3.35-8.427V98.688l18.2-17.427,41.557,54.772a10.436,10.436,0,0,0,3.831,3.255,10.575,10.575,0,0,0,4.789,1.149,13.375,13.375,0,0,0,9.1-3.446,11,11,0,0,0,3.926-8.62,12.681,12.681,0,0,0-.764-4.118,13.747,13.747,0,0,0-1.916-3.732" transform="translate(-2758.534 -4.462)"/><path class="a" d="M4471.146,7.777a10.859,10.859,0,0,0-6.129,1.916,12.214,12.214,0,0,0-4.4,5.362l-35.239,90.588-38.5-90.588a12.117,12.117,0,0,0-4.405-5.554,10.883,10.883,0,0,0-6.13-1.913,12.262,12.262,0,0,0-7.85,3.159,10.26,10.26,0,0,0-3.833,8.33,10.624,10.624,0,0,0,.96,4.788l47.3,111.08a11.835,11.835,0,0,0,4.308,5.268,10.988,10.988,0,0,0,12.546.094,12.823,12.823,0,0,0,4.789-5.552l47.3-110.7a13.134,13.134,0,0,0,1.147-5.171,10.29,10.29,0,0,0-3.543-7.853,11.919,11.919,0,0,0-8.33-3.255" transform="translate(-3592.396 -6.245)"/><path class="a" d="M5184.4,10.827a12.13,12.13,0,0,0-8.811,3.352,11.157,11.157,0,0,0-3.445,8.33v110.7a11.29,11.29,0,0,0,3.352,8.33,11.531,11.531,0,0,0,8.521,3.352,12.045,12.045,0,0,0,8.425-3.352,10.856,10.856,0,0,0,3.639-8.33V22.509a11.146,11.146,0,0,0-3.445-8.33,11.416,11.416,0,0,0-8.236-3.352" transform="translate(-4257.01 -8.911)"/><path class="a" d="M5542.7,10.827h-85.033a11.885,11.885,0,0,0-8.33,3.065,10.165,10.165,0,0,0-3.352,7.851,10.523,10.523,0,0,0,3.256,8.044,11.791,11.791,0,0,0,8.426,3.065h30.068V133.206a11.136,11.136,0,0,0,3.449,8.33,12.1,12.1,0,0,0,8.81,3.352,12.776,12.776,0,0,0,9-3.352,10.862,10.862,0,0,0,3.638-8.33V32.852H5542.7a12.014,12.014,0,0,0,8.427-2.969,10.227,10.227,0,0,0,3.259-7.947,10.533,10.533,0,0,0-3.259-8.044,11.8,11.8,0,0,0-8.427-3.065" transform="translate(-4482.396 -8.911)"/><path class="a" d="M6933.525,122.48h-49.986V22.509a11.149,11.149,0,0,0-3.447-8.33,11.413,11.413,0,0,0-8.235-3.352,12.129,12.129,0,0,0-8.811,3.352,11.158,11.158,0,0,0-3.445,8.33v110.7a11.453,11.453,0,0,0,11.683,11.682h62.242a11.675,11.675,0,0,0,8.33-3.159,10.458,10.458,0,0,0,3.353-7.947,10.684,10.684,0,0,0-3.353-8.14,11.676,11.676,0,0,0-8.33-3.162" transform="translate(-5645.892 -8.911)"/><path class="a" d="M7505.061,10.827a12.128,12.128,0,0,0-8.811,3.352,11.156,11.156,0,0,0-3.446,8.33v110.7a11.292,11.292,0,0,0,3.352,8.33,11.528,11.528,0,0,0,8.521,3.352,12.05,12.05,0,0,0,8.428-3.352,10.861,10.861,0,0,0,3.638-8.33V22.509a11.154,11.154,0,0,0-3.444-8.33,11.421,11.421,0,0,0-8.236-3.352" transform="translate(-6167.059 -8.911)"/><path class="a" d="M7856.662,65.021q-9.869-4.5-26.334-7.374-14.558-2.681-21.355-6.894a13.724,13.724,0,0,1-6.8-12.449q0-7.279,6.607-11.779t18.672-4.5a46.1,46.1,0,0,1,15.991,3.352,50.57,50.57,0,0,1,13.885,7.374,8.4,8.4,0,0,0,5.172,1.723,10.332,10.332,0,0,0,7.66-3.352,10.8,10.8,0,0,0,3.254-7.757q0-5.743-5.553-10.15a55.135,55.135,0,0,0-17.714-9.576A69.713,69.713,0,0,0,7827.455,0a61.011,61.011,0,0,0-24.324,4.692,39.97,39.97,0,0,0-17.235,13.6,35.3,35.3,0,0,0-6.32,20.972q0,32.945,41.943,39.071,16.663,2.488,24.323,7.371t7.661,13.5q0,7.085-7.758,11.872t-18.483,4.788A46.843,46.843,0,0,1,7810.026,113a56.322,56.322,0,0,1-14.938-9.193,10.146,10.146,0,0,0-6.51-2.3,10.557,10.557,0,0,0-7.854,3.352,10.788,10.788,0,0,0-3.256,7.757q0,5.558,5.171,10.15a56.648,56.648,0,0,0,20.108,11.682,80.025,80.025,0,0,0,24.514,3.448,60.663,60.663,0,0,0,24.324-4.885,43.69,43.69,0,0,0,18.1-13.981,34.389,34.389,0,0,0,6.8-21.162q0-12.829-4.977-20.588t-14.844-12.256" transform="translate(-6401.355)"/><path class="a" d="M8490.537,622.1q-2.971-2.966-8.521-2.969h-2.491q-5.555,0-8.52,2.969t-2.97,8.523v3.255q0,5.558,2.97,8.523t8.52,2.969h2.491q5.552,0,8.521-2.969t2.969-8.523v-3.255q0-5.555-2.969-8.523" transform="translate(-6969.736 -509.587)"/><path class="a" d="M2682.24,126.113,2635.125,13.884a11.357,11.357,0,0,0-4.308-5.648,11.214,11.214,0,0,0-6.416-2.012,10.044,10.044,0,0,0-6.894,1.723,12.727,12.727,0,0,0-4.6,5.937l-47.688,114.528a12.677,12.677,0,0,0-.573,3.639,10.036,10.036,0,0,0,2.585,7.277q2.585,2.681,7.563,2.682a10.1,10.1,0,0,0,6.035-2.012,11.8,11.8,0,0,0,4.116-5.648l7.166-16.813L2608.422,79.2l14.831-35.053,15.125,35.043h0l.014.033,4.2,9.736h-.033l13.286,31.027,6.091,14.171a13.632,13.632,0,0,0,4.311,5.745,10.042,10.042,0,0,0,6.225,2.109,10.422,10.422,0,0,0,7.467-3.162,10.842,10.842,0,0,0,3.256-8.14,12.914,12.914,0,0,0-.957-4.6" transform="translate(-2110.871 -5.074)"/><path class="a" d="M6190.3,126.113,6143.185,13.884a11.35,11.35,0,0,0-4.309-5.648,11.207,11.207,0,0,0-6.415-2.012,10.041,10.041,0,0,0-6.893,1.723,12.72,12.72,0,0,0-4.6,5.937l-47.687,114.528a12.646,12.646,0,0,0-.574,3.639,10.039,10.039,0,0,0,2.586,7.277q2.583,2.681,7.564,2.682a10.092,10.092,0,0,0,6.034-2.012,11.794,11.794,0,0,0,4.115-5.648l6.3-14.794,19.563-46.012,12.438-29.4,12.924,29.943.006.014,6.412,14.856h-.044l14.408,33.615L6170,134.157a13.625,13.625,0,0,0,4.311,5.745,10.039,10.039,0,0,0,6.224,2.109,10.421,10.421,0,0,0,7.467-3.162,10.84,10.84,0,0,0,3.256-8.14,12.923,12.923,0,0,0-.957-4.6" transform="translate(-4998.229 -5.074)"/></g></svg>