<svg xmlns="https://www.w3.org/2000/svg" xmlns:xlink="https://www.w3.org/1999/xlink" width="56.549" height="55.539" viewBox="0 0 56.549 55.539"><defs><style>.a{fill:#00946e;}.b{clip-path:url(#a);}</style><clipPath id="a"><rect class="a" width="56.549" height="55.539"/></clipPath></defs><g class="b"><path class="a" d="M3.095,55.539h0A3.1,3.1,0,0,0,6.19,52.444V10.791A3.1,3.1,0,0,1,9.285,7.7H24.86a3.1,3.1,0,0,1,1.791,5.619L14.518,21.922a5.075,5.075,0,0,0,2.936,9.214H24.86a3.1,3.1,0,0,1,1.791,5.619L14.787,45.17a5.711,5.711,0,0,0,3.3,10.369H53.454a3.1,3.1,0,0,0,3.095-3.095V3.095a3.095,3.095,0,1,0-6.19,0V44.748a3.1,3.1,0,0,1-3.095,3.095H31.239a3.1,3.1,0,0,1-1.8-5.612l12.449-8.9a5.454,5.454,0,0,0-3.172-9.891H32.589a3.1,3.1,0,0,1-1.8-5.612l11.1-7.935A5.454,5.454,0,0,0,38.715,0H3.095A3.1,3.1,0,0,0,0,3.095V52.444a3.1,3.1,0,0,0,3.095,3.095" transform="translate(0)"/></g></svg>