<svg xmlns="https://www.w3.org/2000/svg" width="45" height="38" viewBox="0 0 45 38"><defs><style>.a{fill:none;}.b,.c{stroke:none;}.c{fill:#00946e;}</style></defs><g class="a" transform="translate(45 38) rotate(180)"><path class="b" d="M19.058,5.813a4,4,0,0,1,6.884,0L41.425,31.962A4,4,0,0,1,37.983,38H7.017a4,4,0,0,1-3.442-6.038Z"/><path class="c" d="M 22.49999809265137 5.850955963134766 C 22.15720748901367 5.850955963134766 21.30330848693848 5.946544647216797 20.77904891967773 6.831977844238281 L 5.296058654785156 32.98101806640625 C 4.761699676513672 33.88349533081055 5.106456756591797 34.68692779541016 5.279487609863281 34.9904670715332 C 5.452518463134766 35.29400634765625 5.968196868896484 35.99999618530273 7.017009735107422 35.99999618530273 L 37.98298645019531 36.00000762939453 C 39.03179931640625 36.00000762939453 39.54747772216797 35.29400634765625 39.72050857543945 34.9904670715332 C 39.89353942871094 34.68692779541016 40.23829650878906 33.88349533081055 39.70393753051758 32.98101806640625 L 24.220947265625 6.831977844238281 C 23.69667816162109 5.946544647216797 22.84278869628906 5.850955963134766 22.49999809265137 5.850955963134766 M 22.50000190734863 3.850955963134766 C 23.83370971679688 3.850955963134766 25.16741371154785 4.504966735839844 25.94189834594727 5.81298828125 L 41.42488861083984 31.9620361328125 C 43.00368881225586 34.62845611572266 41.08176803588867 38.00000762939453 37.98298645019531 38.00000762939453 L 7.017009735107422 37.99999618530273 C 3.918228149414062 38.00000762939453 1.996307373046875 34.62845611572266 3.575107574462891 31.9620361328125 L 19.05809783935547 5.812995910644531 C 19.83258247375488 4.504970550537109 21.16629409790039 3.850955963134766 22.50000190734863 3.850955963134766 Z"/></g></svg>